PathFileType	4	(X/Y/Z)	s09c0303.trc
DataRate	CameraRate	NumFrames	NumMarkers	Units	OrigDataRate	OrigDataStartFrame	OrigNumFrames
200	200	7	50	mm	200	500	2000
Frame#	Time	racr			lacr			c7			jug			rlel			rdr			llel			ldr			s2			lic			ric			lasi			rasi			rpsi			lpsi			rgt			lgt			rth1			rth2			rth3			rth4			rlfc			rmfc			rsh1			rsh2			rsh3			rsh4			rlmal			rmmal			rcal			rtoe			rmt5			lth1			lth2			lth4			lth3			llfc			lmfc			llmal			lmmal			lcal			lmt5			lsh1			lsh2			lsh3			lsh4			ltoe			SBIKE			LBIKE			RBIKE			
		X1	Y1	Z1	X2	Y2	Z2	X3	Y3	Z3	X4	Y4	Z4	X5	Y5	Z5	X6	Y6	Z6	X7	Y7	Z7	X8	Y8	Z8	X9	Y9	Z9	X10	Y10	Z10	X11	Y11	Z11	X12	Y12	Z12	X13	Y13	Z13	X14	Y14	Z14	X15	Y15	Z15	X16	Y16	Z16	X17	Y17	Z17	X18	Y18	Z18	X19	Y19	Z19	X20	Y20	Z20	X21	Y21	Z21	X22	Y22	Z22	X23	Y23	Z23	X24	Y24	Z24	X25	Y25	Z25	X26	Y26	Z26	X27	Y27	Z27	X28	Y28	Z28	X29	Y29	Z29	X30	Y30	Z30	X31	Y31	Z31	X32	Y32	Z32	X33	Y33	Z33	X34	Y34	Z34	X35	Y35	Z35	X36	Y36	Z36	X37	Y37	Z37	X38	Y38	Z38	X39	Y39	Z39	X40	Y40	Z40	X41	Y41	Z41	X42	Y42	Z42	X43	Y43	Z43	X44	Y44	Z44	X45	Y45	Z45	X46	Y46	Z46	X47	Y47	Z47	X48	Y48	Z48	X49	Y49	Z49	X50	Y50	Z50	
500	2.5000	746.628916	1333.094160	-205.469692	669.014184	1201.598390	-521.572122	702.311097	1326.860031	-356.854782	696.967450	1195.089816	-329.559511	671.636373	1111.016075	-70.223478	728.513150	865.651004	-60.732608	474.170526	996.681996	-473.184558	695.787042	890.985608	-446.423462	259.918344	1181.719113	-147.747165	328.043616	1172.363702	-335.260021	446.098750	1132.249611	-74.555364	360.450216	1111.400095	-334.705176	462.998277	1074.746851	-111.285315	321.048335	1192.089206	-109.362139	268.984533	1223.742778	-201.606232	408.479663	983.729022	-35.620223	257.859661	1076.044863	-373.103253	446.391490	855.306207	-70.285199	488.192856	782.290703	-96.912991	481.551016	695.120817	-111.159327	509.868970	792.851313	-124.062615	467.189120	594.013148	-141.826302	423.339516	591.672014	-230.886340	388.754407	532.075887	-94.931854	344.886541	454.520246	-103.100110	271.718780	407.728557	-88.341338	356.915024	441.777843	-139.301754	196.351326	335.175003	-76.721191	197.968156	337.307965	-155.407328	128.457516	380.237685	-105.193952	229.546383	137.703293	-134.207479	186.919701	201.371782	-63.431841	349.255474	978.330038	-404.883296	426.803795	947.872848	-422.674879	446.816155	975.840645	-413.440360	480.780212	877.397379	-442.023899	549.198673	790.058632	-446.537516	590.641960	773.203565	-355.571683	342.249189	493.774360	-409.339456	358.100109	506.942759	-332.548383	260.344078	460.857140	-364.605399	423.659388	408.587124	-438.526587	492.062876	707.274902	-454.381670	459.814601	628.227564	-436.545207	389.122779	576.115487	-422.141345	486.641174	615.039545	-410.229958	518.942338	434.800395	-374.097113	-63.955181	850.814123	-241.399521	21.162313	83.888691	-442.372273	21.202368	84.038757	-43.923846	
501	2.5050	745.406841	1333.084008	-204.979389	669.900444	1199.784953	-520.758098	701.621972	1326.199279	-356.998360	697.014444	1194.028595	-328.687835	670.434554	1110.635921	-69.935474	728.823618	866.091176	-60.488926	474.315359	995.380920	-474.850790	695.628412	890.894319	-446.963888	258.415640	1179.768924	-149.539570	328.142139	1169.631191	-336.842331	444.404906	1131.630284	-74.930638	360.763299	1108.694367	-335.569105	461.376563	1073.977824	-111.527925	319.228981	1190.829404	-110.723025	267.669474	1221.417744	-204.033587	407.845058	982.490822	-35.412555	258.278760	1072.215143	-374.502520	445.060226	854.223183	-70.391454	487.335778	781.587741	-96.596827	481.488029	694.003173	-110.672349	508.908357	792.010382	-123.983263	468.330543	593.316684	-142.271738	424.468815	591.440088	-231.531392	389.115497	533.411115	-95.595825	343.687397	456.778555	-103.557832	269.626101	411.396150	-88.831534	355.729879	443.420800	-139.633107	192.897303	340.136139	-77.126211	195.234069	342.042417	-155.886894	125.317609	385.472338	-105.691002	226.269655	142.787306	-133.890399	183.301087	206.665243	-63.386632	349.868170	974.796809	-405.517247	427.250499	943.768492	-422.968382	447.120231	971.804618	-414.294537	480.939848	872.825299	-441.524120	549.525876	785.618983	-445.545410	590.440463	768.913012	-354.335581	344.573762	487.934575	-409.477595	360.116369	501.077848	-332.316455	262.866482	454.141361	-364.663278	426.682183	403.238043	-438.472784	492.892905	702.444203	-453.638080	461.216597	623.157621	-435.870563	390.929311	570.562689	-421.943014	488.012019	610.309434	-409.460247	521.735423	430.192292	-374.088496	-63.953317	850.802628	-241.457903	21.182204	83.853913	-442.351821	21.211818	84.043558	-43.929064	
502	2.5100	744.300696	1332.871703	-204.640442	670.912763	1197.926493	-519.985579	701.107561	1325.385901	-357.307238	697.129518	1192.941284	-327.753342	669.032717	1110.554683	-69.312179	728.548040	866.176709	-60.155291	473.402695	994.067146	-476.617596	695.120765	891.297006	-447.796004	256.875944	1177.811531	-151.432520	328.234878	1166.947923	-338.504478	442.508607	1130.738245	-75.408484	360.980532	1106.200096	-336.121075	459.591906	1073.110913	-111.913728	317.349154	1189.546140	-111.944825	266.293866	1219.064277	-206.457138	407.096695	981.110138	-35.116292	259.206671	1068.256604	-375.567168	443.733079	853.146762	-70.493382	486.322244	780.834726	-96.457143	481.263151	693.262159	-110.193076	507.791080	791.378545	-124.033655	469.572592	592.902754	-142.517079	425.834826	591.067698	-231.886369	389.527024	534.789916	-96.137239	342.622218	458.965600	-103.893386	267.753801	415.095693	-89.234983	354.643974	445.144398	-139.796876	189.823801	345.236190	-77.419752	192.288391	347.288771	-156.129582	122.548450	390.795535	-106.121057	223.101531	148.032139	-133.476865	179.894197	211.930360	-63.301252	350.881281	971.200262	-406.410399	427.790375	939.426104	-424.132072	447.053573	968.019962	-416.109748	481.398683	868.244944	-441.412946	549.813090	780.830532	-444.423109	589.720834	764.900292	-353.198902	346.695751	481.795027	-409.274293	361.496194	495.157035	-332.207003	265.144068	447.245044	-364.707121	429.401864	397.788064	-438.446645	493.621366	697.452183	-452.722124	462.509591	617.957718	-435.153091	392.543137	564.707619	-421.605594	489.215973	605.321206	-408.491054	524.354723	425.497135	-374.049705	-63.970525	850.785882	-241.492006	21.172449	83.794408	-442.312649	21.229253	84.032805	-43.905601	
503	2.5150	743.298967	1332.492064	-203.842713	672.110366	1195.977398	-519.286769	700.866905	1324.529949	-357.205516	697.236172	1191.836241	-326.930964	667.824343	1110.326673	-68.656791	728.151768	866.258172	-59.664643	470.807571	992.519490	-478.058698	695.020653	891.434194	-448.202495	255.268513	1175.775093	-153.402005	328.323270	1164.323530	-340.250816	440.401219	1129.928831	-75.942836	361.131634	1103.501988	-337.213021	457.748332	1072.195513	-112.160858	315.326945	1188.061481	-113.456841	264.958606	1216.777463	-208.779861	406.065641	979.834501	-34.967881	259.670643	1064.261864	-377.257998	442.267185	852.225718	-70.677480	485.276863	780.037510	-96.446848	481.206812	692.100277	-109.751221	506.797040	790.630191	-123.934720	470.833349	592.461319	-142.603452	427.505687	590.479567	-231.934645	390.216018	536.076100	-96.465447	341.630067	461.150367	-104.174771	266.010731	418.779334	-89.564803	353.681104	446.960775	-139.834001	186.944345	350.333142	-77.632694	189.218290	352.961290	-156.178375	119.516005	396.254335	-107.068891	220.231622	153.138397	-132.923892	176.487937	217.410619	-63.200129	352.317037	967.274484	-407.481158	429.042237	935.105078	-424.722931	446.791358	964.119581	-418.624220	482.264006	863.618742	-441.779368	550.090178	775.896529	-443.094036	588.791105	760.481890	-352.029519	348.733053	475.837231	-409.773665	362.785967	489.036718	-331.889594	267.208444	440.186564	-364.834855	431.900958	392.233949	-438.462276	494.174781	692.172209	-451.702016	463.610557	612.353227	-434.304579	394.827538	558.205034	-420.317995	490.445774	599.523689	-406.759059	526.714516	420.741042	-374.033128	-63.955803	850.780064	-241.500025	21.197905	83.809718	-442.347889	21.258374	84.047435	-43.897247	
504	2.5200	742.372122	1331.902145	-202.926155	673.430503	1193.840178	-518.544156	700.777680	1323.488336	-357.000715	697.392825	1190.697824	-326.128892	666.355074	1110.054772	-67.729935	727.709165	866.230343	-59.164426	467.946448	990.136011	-479.427896	694.382485	891.393627	-448.443205	253.636174	1173.782781	-155.497284	328.410980	1161.764837	-342.086794	438.169889	1128.996164	-76.511890	361.339067	1100.838425	-338.405056	455.829566	1071.096023	-112.411326	313.177653	1186.664490	-115.010243	263.366829	1214.697341	-210.692483	404.652147	978.546328	-34.828574	260.227111	1060.231711	-379.053701	440.832245	851.299986	-70.931830	484.378396	779.454829	-96.388357	481.102892	691.453046	-109.358069	505.913749	790.017372	-123.945430	472.230417	592.451357	-142.509224	429.352935	589.812685	-231.814735	390.754257	537.460441	-96.688785	340.792100	463.356517	-104.310322	264.379857	422.473203	-89.755569	352.710987	448.904718	-139.844893	184.264330	355.489696	-78.131795	186.110857	358.974113	-156.076335	116.517343	401.628231	-109.464355	217.414401	158.166152	-131.534008	172.944315	223.065607	-62.930180	354.409805	963.122526	-408.769895	431.106744	930.343812	-425.734496	459.087341	956.214104	-413.845680	483.524287	858.139638	-441.820389	550.022368	770.874831	-441.785421	587.505380	755.884484	-350.356509	350.268769	469.162412	-409.405504	367.847049	481.997922	-329.549246	269.163819	432.917508	-365.027138	434.223214	386.496642	-438.388112	494.611154	686.669381	-450.613313	464.522990	606.818248	-433.409407	396.155107	551.945003	-420.027475	491.230337	594.169663	-405.646018	528.869701	415.875932	-373.982464	-63.956046	850.771417	-241.516758	21.172950	83.807248	-442.337796	21.250956	84.037387	-43.891318	
505	2.5250	741.571090	1331.042755	-201.934968	674.832447	1191.703599	-517.838913	700.912182	1322.324525	-356.748338	697.545436	1189.587069	-325.196670	664.862705	1109.747230	-66.752033	727.284283	866.174431	-58.592750	467.421899	987.369631	-480.907966	693.845966	891.348822	-448.619943	251.964488	1171.819111	-157.710743	328.504023	1159.274757	-344.018182	435.791538	1127.952953	-77.209122	361.482331	1098.356582	-339.614785	453.721217	1070.096522	-112.756080	310.918314	1185.222827	-116.561095	262.282052	1211.844162	-213.546822	402.852168	977.311220	-34.779020	260.854105	1056.200198	-380.956509	439.442075	850.633270	-71.242622	483.548111	779.088611	-96.341154	481.222402	691.070831	-109.039309	505.128035	789.673099	-124.034318	473.647410	592.566308	-142.300925	431.115641	589.202870	-231.570898	391.328486	538.871016	-96.767186	340.021256	465.784340	-104.311582	262.807974	426.177597	-90.109589	351.912348	450.857727	-139.692898	181.003138	361.327671	-78.820111	183.053258	365.241472	-155.866490	114.268358	407.172246	-111.168953	214.650302	163.400862	-130.830304	169.506579	229.050013	-62.780198	356.623644	958.753342	-410.557424	433.239023	924.863308	-426.247434	461.344909	950.510306	-415.192476	484.650874	852.008486	-441.540979	550.017824	765.785767	-440.319988	585.858770	750.984813	-348.491892	351.892706	462.876439	-409.676889	367.456136	475.940861	-330.805638	269.798338	426.712589	-366.146420	436.355748	380.658083	-438.324640	494.809430	681.124140	-449.472273	465.411445	600.613112	-431.987369	396.400519	546.030603	-420.264842	491.609795	589.151907	-405.045383	530.869703	410.890445	-373.875715	-63.951563	850.737562	-241.483637	21.165437	83.760723	-442.303567	21.244983	84.025637	-43.894402	
506	2.5300	740.837553	1330.107720	-200.928176	676.232703	1189.457680	-517.169170	701.088293	1321.081930	-356.465899	697.725308	1188.312208	-324.332056	663.373614	1109.337962	-65.740932	726.875806	866.069015	-57.997834	468.138147	986.826583	-482.262010	693.468671	891.326870	-448.661301	250.222741	1169.852208	-160.097407	328.610764	1156.852303	-346.049795	433.214500	1126.765121	-78.092857	361.637612	1095.557595	-340.377470	451.498760	1068.841632	-113.257522	308.526974	1183.923388	-118.306660	260.864488	1209.790610	-215.925309	400.759468	976.126488	-34.895226	261.505784	1052.247544	-382.908262	438.085515	850.159178	-71.679561	482.948799	778.961385	-96.378000	481.563998	690.736955	-108.845556	504.596947	789.652814	-123.993194	475.122765	592.818083	-141.899890	432.692502	588.801635	-231.067787	391.785282	540.468021	-96.733988	339.342083	468.215127	-104.360763	261.246741	430.017102	-90.571990	351.099746	452.982929	-139.622616	178.302248	367.230914	-79.562562	180.132616	371.677569	-155.591872	112.357928	412.979999	-111.661867	212.360142	169.172868	-130.916254	166.830135	235.302041	-62.986667	358.504615	954.187210	-412.589776	434.958198	919.439013	-426.563141	459.184320	944.948121	-418.454535	485.728874	845.904671	-440.715793	549.596506	760.621242	-438.589163	583.997703	745.805373	-346.446321	353.197684	456.128766	-409.586726	367.810651	469.674898	-331.317779	271.009690	418.968718	-366.273385	438.398051	374.631584	-438.328631	494.801189	675.508062	-448.320799	465.954697	594.765083	-431.017603	390.340341	543.399550	-417.152713	492.013938	583.516789	-403.843154	532.638862	405.783513	-373.862396	-63.944790	850.728050	-241.479719	21.136235	83.745494	-442.307331	21.208938	83.991234	-43.892465	
